<?xml version="1.0" standalone="no"?>
<!DOCTYPE svg PUBLIC "-//W3C//DTD SVG 20010904//EN"
 "http://www.w3.org/TR/2001/REC-SVG-20010904/DTD/svg10.dtd">
<svg version="1.0" xmlns="http://www.w3.org/2000/svg"
 width="16.000000pt" height="16.000000pt" viewBox="0 0 25.000000 25.000000"
 preserveAspectRatio="xMidYMid meet">

<g transform="translate(0.000000,25.000000) scale(0.100000,-0.100000)"
fill="currentColor" stroke="none">
<path d="M40 125 l0 -55 85 0 85 0 0 55 0 55 -85 0 -85 0 0 -55z m142 28 c22
-20 23 -31 1 -55 -31 -34 -133 -15 -133 25 0 43 94 64 132 30z"/>
<path d="M102 128 c2 -15 10 -23 23 -23 13 0 21 8 23 23 3 18 -1 22 -23 22
-22 0 -26 -4 -23 -22z"/>
</g>
</svg>
