<svg xmlns="http://www.w3.org/2000/svg" viewBox="0 0 256 255" width="100" height="100">
  <path fill="#064EA4" d="M126.9,0C93.2,0,94.4,17.8,94.4,17.8V38h65.6v19.2H65.7c0,0-34.3-1.1-34.3,31.1v37.5
    c0,32.2,28.4,31.1,28.4,31.1h21.3v-29.2c0,0-1.2-28.4,27.5-28.4h49.1c0,0,26.2,0.6,26.2-26.3V26.3C183.9,8.2,163.6,0,126.9,0z
    M96.7,20.3c5.3,0,9.6,4.3,9.6,9.6c0,5.3-4.3,9.6-9.6,9.6s-9.6-4.3-9.6-9.6C87.1,24.6,91.4,20.3,96.7,20.3z"/>
  <path fill="#064EA4" d="M129.1,255c33.7,0,32.5-17.8,32.5-17.8V198h-65.6v-19.2h94.3c0,0,34.3,1.1,34.3-31.1v-37.5
    c0-32.2-28.4-31.1-28.4-31.1h-21.3v29.2c0,0,1.2,28.4-27.5,28.4h-49.1c0,0-26.2-0.6-26.2,26.3v52.2C72.1,246.8,92.4,255,129.1,255z
    M159.3,234.7c-5.3,0-9.6-4.3-9.6-9.6c0-5.3,4.3-9.6,9.6-9.6s9.6,4.3,9.6,9.6C168.9,230.4,164.6,234.7,159.3,234.7z"/>
</svg>
